<?xml version="1.0" standalone="no"?>
<!DOCTYPE svg PUBLIC "-//W3C//DTD SVG 20010904//EN"
 "http://www.w3.org/TR/2001/REC-SVG-20010904/DTD/svg10.dtd">
<svg version="1.0" xmlns="http://www.w3.org/2000/svg"
 width="303.000000pt" height="303.000000pt" viewBox="0 0 303.000000 303.000000"
 preserveAspectRatio="xMidYMid meet">
<metadata>
Created by potrace 1.14, written by Peter Selinger 2001-2017
</metadata>
<g transform="translate(0.000000,303.000000) scale(0.100000,-0.100000)"
fill="#000000" stroke="none">
<path d="M485 2263 c-386 -80 -592 -513 -414 -872 101 -204 309 -332 541 -332
140 -1 243 32 359 113 58 40 70 62 59 108 -5 22 -7 23 -16 7 -23 -40 -160
-127 -241 -151 -204 -62 -451 14 -586 181 -105 131 -147 307 -112 470 17 79
73 185 131 251 156 177 432 230 647 127 54 -27 157 -102 157 -116 0 -5 4 -9 9
-9 5 0 11 16 13 35 4 39 -4 50 -83 103 -130 87 -300 119 -464 85z"/>
<path d="M375 2008 c-102 -36 -146 -145 -99 -244 35 -73 156 -109 232 -70 44
23 53 38 36 60 -13 19 -15 19 -49 3 -86 -41 -164 2 -165 91 0 84 82 128 162
86 31 -16 33 -16 50 6 22 27 12 44 -36 60 -50 16 -98 19 -131 8z"/>
<path d="M736 2005 c-72 -25 -109 -79 -109 -161 -1 -116 91 -183 217 -160 97
18 152 134 111 232 -34 81 -130 119 -219 89z m115 -72 c58 -34 62 -122 7 -168
-45 -38 -111 -30 -142 17 -64 98 36 209 135 151z"/>
<path d="M1090 1845 l0 -165 35 0 34 0 3 91 3 92 60 -63 c95 -100 128 -130
137 -124 4 3 7 76 7 164 -1 166 -3 172 -45 166 -17 -2 -20 -15 -24 -96 l-5
-93 -90 96 c-49 54 -96 97 -102 97 -10 0 -13 -39 -13 -165z"/>
<path d="M1456 1987 c-9 -34 4 -46 52 -49 l47 -3 -1 -125 c0 -69 4 -128 9
-131 4 -3 19 -4 33 -1 27 5 26 -2 26 154 l0 107 46 3 c45 3 47 4 47 33 l0 30
-127 0 c-117 1 -127 0 -132 -18z"/>
<path d="M1809 1995 c-4 -46 0 -307 5 -312 4 -4 143 -7 194 -4 7 1 12 14 12
31 l0 30 -70 0 c-38 0 -70 3 -71 8 -9 64 -11 62 56 62 67 0 79 8 65 46 -7 18
-16 21 -64 19 -31 -1 -56 2 -57 7 -7 52 -7 53 66 58 70 5 70 5 70 35 l0 30
-102 0 c-65 1 -103 -3 -104 -10z"/>
<path d="M2124 1997 c-2 -7 -3 -80 -2 -162 l3 -150 33 -3 32 -3 0 97 0 97 97
-102 c54 -57 100 -98 105 -93 5 5 7 80 6 167 -3 145 -5 158 -22 161 -41 6 -46
-4 -46 -99 l0 -91 -91 97 c-50 53 -95 97 -100 97 -5 0 -12 -6 -15 -13z"/>
<path d="M2492 1975 c3 -28 6 -30 49 -33 l47 -3 0 -117 c0 -64 0 -123 1 -129
1 -8 14 -13 31 -13 17 0 31 6 31 13 1 6 2 62 3 124 0 61 5 115 9 119 4 5 26 7
47 5 39 -2 40 -2 40 31 l0 34 -130 0 -131 -1 3 -30z"/>
<path d="M266 1553 c-12 -12 -6 -38 23 -98 49 -101 118 -160 225 -190 161 -46
343 37 411 188 34 76 36 101 6 102 -25 0 -27 -2 -62 -78 -26 -59 -76 -109
-138 -139 -67 -34 -187 -33 -255 2 -63 32 -129 106 -148 166 -10 33 -21 48
-35 50 -11 2 -23 1 -27 -3z"/>
<path d="M1089 1527 c0 -12 -1 -84 -1 -161 -1 -142 3 -158 41 -151 9 2 20 4
24 4 5 1 7 39 5 86 -2 47 -1 85 2 84 3 0 21 -20 40 -44 19 -24 42 -44 50 -44
8 -1 31 19 50 44 19 24 37 44 40 45 3 0 5 -36 5 -80 -1 -43 1 -84 5 -90 7 -11
44 -9 56 3 9 9 8 316 -1 325 -6 7 -24 -12 -113 -114 -37 -43 -44 -47 -54 -33
-43 53 -122 139 -134 143 -9 4 -14 -2 -15 -17z"/>
<path d="M1562 1542 l-32 -3 2 -162 3 -161 102 -1 c97 -1 102 0 106 22 6 34
-7 45 -54 43 -88 -4 -89 -3 -89 34 l0 33 53 1 c28 0 58 1 65 1 7 1 12 14 12
31 0 32 -7 34 -97 32 -31 -1 -33 0 -33 33 l0 35 69 0 69 0 4 30 c3 17 2 30 -1
31 -33 2 -153 3 -179 1z"/>
<path d="M1858 1539 c-8 -5 -14 -182 -9 -300 1 -25 2 -25 79 -24 42 1 93 7
113 14 125 41 141 234 24 291 -44 21 -183 34 -207 19z m189 -92 c35 -34 35
-100 -1 -135 -27 -27 -125 -45 -127 -23 -4 35 -5 177 -1 185 3 4 27 6 54 4 36
-4 57 -12 75 -31z"/>
<path d="M2252 1535 c-4 -5 -7 -79 -7 -162 0 -117 3 -153 12 -154 17 -2 41 -2
51 0 4 0 6 61 5 133 -2 211 0 193 -29 193 -14 0 -29 -4 -32 -10z"/>
<path d="M2471 1388 c-43 -90 -78 -164 -76 -166 7 -8 51 -11 60 -4 6 4 31 49
55 100 24 50 47 92 50 92 4 0 26 -41 50 -90 23 -50 47 -93 54 -97 16 -10 56
-11 62 -2 6 11 -154 329 -166 329 -5 0 -45 -73 -89 -162z"/>
<path d="M1158 1074 c-35 -18 -48 -43 -48 -89 0 -41 33 -79 78 -89 56 -13 82
-29 82 -47 0 -38 -83 -44 -125 -9 -9 8 -17 6 -29 -5 -36 -37 -2 -72 80 -81 67
-8 120 14 138 58 27 64 -5 117 -87 139 -72 19 -90 51 -40 70 21 8 36 6 66 -7
35 -16 39 -16 54 -1 50 50 -93 103 -169 61z"/>
<path d="M1530 1079 c-63 -25 -100 -85 -100 -162 0 -88 58 -155 144 -164 63
-8 129 19 164 65 23 30 27 45 27 102 0 58 -4 71 -29 104 -16 21 -44 44 -62 52
-38 16 -107 17 -144 3z m143 -90 c31 -34 37 -91 11 -127 -16 -24 -61 -49 -81
-46 -7 1 -21 2 -32 3 -10 0 -30 13 -45 27 -21 21 -26 36 -26 73 1 52 13 73 56
96 39 20 82 11 117 -26z"/>
<path d="M1955 1075 c-65 -30 -93 -71 -99 -142 -12 -133 125 -223 248 -163 49
23 54 35 33 64 -13 18 -15 18 -40 2 -72 -48 -163 -9 -172 73 -10 92 88 147
172 95 19 -12 24 -12 37 2 26 25 18 44 -26 64 -50 23 -111 25 -153 5z"/>
<path d="M2252 1071 c-4 -11 -6 -77 -5 -148 2 -182 -1 -169 28 -168 14 1 28 5
32 9 4 4 8 76 8 161 1 146 0 154 -20 159 -31 9 -35 7 -43 -13z"/>
<path d="M2474 935 c-41 -86 -73 -162 -71 -169 3 -8 17 -11 34 -9 27 4 35 15
77 106 l47 102 44 -93 c25 -52 45 -98 45 -102 0 -5 8 -10 18 -12 22 -5 62 2
61 11 -1 19 -156 316 -166 319 -8 2 -43 -59 -89 -153z"/>
<path d="M2823 1083 c-10 -3 -13 -46 -13 -164 l0 -159 28 -1 c185 -5 185 -5
187 35 1 26 0 26 -72 26 -69 0 -73 1 -74 23 0 12 -1 71 -2 131 -2 101 -4 109
-22 111 -11 2 -26 1 -32 -2z"/>
<path d="M950 812 c-19 -16 -21 -22 -11 -40 13 -24 40 -29 59 -10 35 35 -10
81 -48 50z"/>
</g>
</svg>
