<?xml version="1.0" standalone="no"?>
<!DOCTYPE svg PUBLIC "-//W3C//DTD SVG 20010904//EN"
 "http://www.w3.org/TR/2001/REC-SVG-20010904/DTD/svg10.dtd">
<svg version="1.0" xmlns="http://www.w3.org/2000/svg"
 width="500.000000pt" height="500.000000pt" viewBox="0 0 500.000000 500.000000"
 preserveAspectRatio="xMidYMid meet">
<metadata>
Created by potrace 1.14, written by Peter Selinger 2001-2017
</metadata>
<g transform="translate(0.000000,500.000000) scale(0.100000,-0.100000)"
fill="#000000" stroke="none">
<path d="M2449 4796 c-2 -2 -49 -7 -104 -10 -106 -6 -164 -11 -205 -19 -14 -3
-43 -8 -65 -12 -59 -11 -67 -13 -103 -24 -18 -5 -35 -10 -37 -10 -3 -1 -6 -1
-7 -2 -5 -1 -33 -8 -55 -13 -51 -11 -138 -41 -144 -49 -3 -5 -10 -8 -15 -7 -5
0 -16 -1 -24 -3 -8 -2 -19 -5 -25 -6 -5 -1 -20 -9 -32 -17 -13 -8 -23 -12 -23
-10 0 3 -22 -6 -49 -19 -27 -14 -54 -25 -60 -25 -6 0 -11 -4 -11 -9 0 -5 -13
-12 -30 -16 -16 -4 -30 -11 -30 -17 0 -6 -3 -9 -6 -5 -4 3 -26 -7 -49 -23 -23
-16 -45 -26 -49 -23 -3 4 -6 1 -6 -5 0 -7 -4 -12 -9 -12 -12 0 -103 -60 -113
-74 -4 -6 -8 -7 -8 -2 0 6 -9 0 -20 -12 -12 -12 -24 -22 -28 -22 -4 0 -21 -13
-39 -28 -17 -15 -45 -37 -61 -49 -16 -12 -41 -34 -56 -48 -15 -14 -32 -25 -37
-25 -6 0 -7 -4 -4 -10 3 -5 2 -10 -3 -10 -12 0 -120 -109 -114 -115 3 -3 0 -5
-5 -5 -6 0 -25 -19 -42 -42 -17 -23 -31 -38 -31 -32 0 5 -5 1 -11 -8 -5 -10
-10 -20 -9 -23 0 -3 -14 -18 -30 -34 -17 -15 -30 -31 -30 -35 0 -4 -6 -13 -12
-20 -7 -8 -20 -24 -28 -36 -8 -12 -21 -28 -28 -36 -6 -7 -12 -17 -12 -23 0 -6
-4 -11 -10 -11 -5 0 -10 -6 -10 -13 0 -8 -9 -24 -20 -37 -11 -13 -27 -40 -37
-61 -9 -22 -20 -39 -24 -39 -8 0 -33 -60 -30 -72 0 -5 -3 -8 -7 -8 -5 0 -16
-19 -26 -42 -9 -24 -22 -54 -28 -68 -7 -14 -11 -28 -10 -32 1 -5 -2 -8 -8 -8
-5 0 -10 -5 -10 -12 0 -6 -14 -49 -31 -96 -17 -46 -33 -91 -34 -101 -2 -9 -4
-16 -5 -16 -2 0 -9 -30 -14 -55 -2 -8 -6 -22 -9 -30 -5 -14 -21 -86 -32 -142
-3 -16 -8 -40 -11 -55 -23 -111 -35 -416 -21 -553 11 -120 18 -175 23 -200 3
-14 8 -38 11 -55 4 -16 7 -40 7 -52 1 -13 5 -23 10 -23 5 0 7 -3 4 -6 -4 -3
-2 -20 3 -37 6 -18 12 -40 14 -51 8 -36 49 -161 54 -166 3 -3 8 -16 9 -30 2
-14 8 -26 13 -28 5 -2 9 -12 9 -23 0 -17 17 -56 30 -69 3 -3 7 -14 8 -25 2
-11 8 -21 13 -23 5 -2 9 -10 9 -18 0 -17 59 -128 71 -132 5 -2 7 -7 4 -12 -2
-4 4 -18 15 -30 11 -13 20 -27 20 -31 0 -11 111 -173 122 -177 4 -2 8 -8 8
-13 0 -6 11 -22 24 -36 14 -15 22 -31 19 -37 -3 -6 -3 -8 2 -4 4 4 27 -18 52
-48 24 -29 48 -54 54 -54 5 0 9 -4 9 -9 0 -13 89 -101 101 -101 6 0 7 -4 4
-10 -3 -5 -1 -10 6 -10 7 0 27 -15 45 -32 18 -18 45 -42 59 -53 15 -11 32 -25
38 -30 7 -6 30 -24 52 -40 22 -17 43 -34 47 -40 4 -5 8 -6 8 -1 0 5 10 0 22
-11 37 -33 166 -112 172 -106 3 4 6 1 6 -6 0 -7 4 -10 9 -6 5 3 12 1 16 -5 3
-6 36 -24 73 -41 37 -17 85 -39 108 -50 22 -10 47 -19 55 -19 8 0 19 -4 25 -9
9 -9 122 -50 153 -56 9 -2 16 -4 16 -5 0 -1 7 -3 15 -5 8 -2 49 -12 90 -23
165 -44 322 -62 545 -64 141 -2 336 15 440 37 56 12 60 13 60 15 0 1 9 3 20 5
26 4 51 10 105 26 25 7 47 13 50 14 14 3 57 17 75 24 11 5 67 27 125 50 58 23
110 43 115 44 6 1 12 4 15 7 3 3 23 14 45 25 22 11 42 22 45 25 3 3 21 13 40
22 50 25 94 52 98 61 2 4 10 7 18 7 8 0 14 5 14 12 0 6 3 8 7 5 3 -4 13 2 20
13 8 11 19 18 24 15 5 -4 12 1 15 9 3 9 12 16 20 16 8 0 14 3 14 8 0 4 17 18
38 31 35 24 68 51 133 114 16 15 29 26 29 24 0 -2 23 18 50 45 28 26 50 53 50
59 0 5 5 7 10 4 6 -3 10 -2 10 3 0 5 15 25 33 44 59 64 82 93 79 100 -1 5 5 8
14 8 8 0 12 5 9 10 -3 6 -1 10 5 10 6 0 8 5 5 10 -3 5 1 10 10 10 9 0 14 4 11
8 -3 5 5 19 18 33 13 14 25 29 27 34 2 6 24 41 49 80 25 38 44 73 43 77 -2 5
1 8 6 8 5 0 14 15 22 33 7 17 16 34 19 37 6 5 19 32 81 165 12 28 24 57 26 66
1 9 12 37 23 63 11 26 20 56 20 66 0 10 5 22 10 25 6 4 8 10 5 15 -3 5 -1 11
5 15 6 4 8 10 5 15 -3 5 -1 11 5 15 6 4 8 10 5 15 -3 5 -2 18 4 27 5 10 12 32
15 48 3 17 10 53 16 80 6 28 13 66 15 85 2 19 4 35 5 35 8 0 23 227 23 335 -1
98 -9 265 -13 265 -1 0 -3 14 -5 30 -7 76 -15 126 -19 133 -2 4 -7 23 -10 42
-3 19 -10 50 -15 68 -5 18 -10 35 -10 37 -2 24 -19 84 -37 130 -4 11 -8 22 -9
25 -6 26 -30 92 -43 120 -8 19 -15 41 -15 48 0 6 -4 12 -8 12 -7 0 -20 30 -25
60 -2 8 -8 16 -14 18 -5 2 -8 8 -4 13 3 5 -2 16 -10 25 -9 8 -16 22 -16 29 0
7 -7 21 -16 29 -9 9 -17 22 -18 29 -3 19 -39 77 -49 77 -4 0 -6 4 -2 9 3 6 -3
14 -12 20 -10 6 -14 11 -9 11 4 0 -3 15 -18 34 -14 19 -26 38 -26 42 0 4 -11
17 -25 30 -14 13 -26 27 -27 31 -3 18 -66 92 -73 85 -5 -4 -5 -2 -2 4 4 7 -11
31 -33 54 -22 23 -40 46 -40 51 0 5 -6 9 -14 9 -8 0 -18 9 -21 20 -3 11 -12
20 -20 20 -8 0 -16 8 -19 18 -3 10 -15 24 -27 32 -12 8 -36 29 -54 47 -18 18
-35 29 -39 26 -3 -3 -6 1 -6 11 0 9 -4 15 -9 11 -5 -3 -12 4 -16 15 -4 11 -15
20 -26 20 -11 0 -17 5 -14 10 3 6 -1 10 -9 10 -9 0 -16 5 -16 10 0 6 -7 10
-15 10 -8 0 -15 4 -15 9 0 5 -15 18 -32 29 -18 12 -51 33 -73 49 -22 15 -60
39 -85 52 -25 14 -48 29 -52 35 -4 6 -8 7 -8 2 0 -5 -7 -3 -15 4 -8 7 -15 9
-15 6 0 -4 -10 2 -22 13 -11 11 -25 18 -30 15 -4 -3 -8 0 -8 5 0 6 -4 11 -9
11 -5 0 -45 16 -88 36 -43 20 -84 37 -90 37 -7 0 -13 5 -13 10 0 6 -3 7 -6 4
-4 -3 -16 -1 -28 5 -11 6 -31 13 -44 14 -13 2 -29 7 -35 12 -7 5 -34 15 -62
21 -73 19 -119 30 -180 47 -11 3 -33 7 -50 9 -16 1 -30 4 -30 5 0 2 -13 4 -30
5 -16 2 -30 4 -30 5 0 3 -59 9 -150 15 -171 12 -200 12 -214 1 -11 -8 -13 -8
-7 2 7 11 -5 18 -15 8z"/>
</g>
</svg>
