<?xml version="1.0" standalone="no"?>
<!DOCTYPE svg PUBLIC "-//W3C//DTD SVG 20010904//EN"
 "http://www.w3.org/TR/2001/REC-SVG-20010904/DTD/svg10.dtd">
<svg version="1.0" xmlns="http://www.w3.org/2000/svg"
 width="600.000000pt" height="600.000000pt" viewBox="0 0 600.000000 600.000000"
 preserveAspectRatio="xMidYMid meet">
<metadata>
Created by potrace 1.14, written by Peter Selinger 2001-2017
</metadata>
<g transform="translate(0.000000,600.000000) scale(0.100000,-0.100000)"
fill="#000000" stroke="none">
<path d="M2835 5329 c-439 -25 -889 -195 -1267 -480 -110 -83 -335 -310 -425
-429 -246 -326 -397 -688 -458 -1095 -25 -165 -25 -485 0 -650 79 -533 324
-1007 703 -1365 264 -249 543 -417 877 -528 237 -79 461 -114 735 -114 96 0
220 5 275 12 959 113 1755 811 1990 1745 52 208 68 342 68 575 0 233 -15 364
-68 575 -104 413 -305 764 -615 1076 -196 197 -385 332 -625 449 -366 178
-760 254 -1190 229z m-624 -1574 c73 -24 163 -74 205 -112 17 -15 24 -33 24
-58 l0 -36 -61 49 c-113 92 -225 132 -369 132 -148 0 -277 -51 -385 -151 -187
-175 -232 -446 -114 -681 37 -73 131 -173 205 -218 98 -59 174 -79 295 -80
159 0 269 40 382 140 l48 43 -3 -43 c-3 -42 -6 -46 -72 -91 -38 -25 -105 -59
-150 -75 -72 -26 -94 -29 -201 -28 -133 0 -174 9 -281 61 -148 72 -268 215
-320 380 -25 80 -29 218 -10 307 56 252 261 447 510 487 82 13 218 1 297 -26z
m-291 -261 c33 -20 38 -35 15 -54 -13 -11 -22 -10 -51 3 -55 27 -91 22 -130
-17 -29 -29 -34 -41 -34 -81 0 -38 5 -52 29 -76 34 -34 92 -39 143 -13 27 14
32 14 46 1 57 -58 -131 -107 -208 -54 -54 36 -73 70 -77 134 -5 75 23 126 87
161 37 19 55 23 97 19 29 -3 66 -14 83 -23z m339 16 c68 -19 113 -84 113 -161
0 -102 -68 -169 -172 -169 -103 0 -170 64 -170 163 0 130 101 204 229 167z
m356 -95 c48 -52 91 -95 96 -95 5 0 9 43 9 95 l0 95 30 0 30 0 0 -170 c0 -93
-3 -170 -7 -170 -4 0 -51 46 -105 103 l-97 102 0 -97 -1 -98 -35 0 -35 0 0
165 c0 135 3 165 14 165 8 0 53 -43 101 -95z m525 66 c0 -28 -2 -30 -47 -33
l-48 -3 -3 -132 -3 -133 -29 0 -30 0 0 135 0 135 -50 0 c-49 0 -50 1 -50 30
l0 30 130 0 130 0 0 -29z m310 -1 l0 -30 -76 0 -75 0 3 -37 3 -38 68 -3 c68
-3 68 -3 65 -30 -3 -26 -5 -27 -70 -30 l-68 -3 0 -34 0 -34 73 -3 c70 -3 72
-4 75 -30 l3 -28 -105 0 -106 0 0 165 0 165 105 0 105 0 0 -30z m226 -65 c48
-52 91 -95 96 -95 4 0 8 43 8 95 l0 95 30 0 30 0 0 -170 c0 -93 -3 -170 -7
-170 -5 0 -52 46 -105 102 l-97 103 -1 -97 0 -98 -35 0 -35 0 0 165 c0 136 3
165 14 165 8 0 54 -43 102 -95z m524 65 c0 -29 -1 -30 -50 -30 l-50 0 0 -135
0 -135 -30 0 -29 0 -3 133 -3 132 -47 3 c-46 3 -48 5 -48 33 l0 29 130 0 130
0 0 -30z m-2477 -489 c24 -67 94 -140 162 -170 59 -26 160 -28 229 -5 69 24
141 95 171 169 19 49 28 61 49 63 32 4 33 -9 4 -85 -27 -73 -102 -154 -177
-190 -50 -25 -67 -28 -156 -28 -92 1 -105 3 -160 32 -95 49 -172 146 -191 242
-7 31 -6 32 21 29 23 -2 31 -12 48 -57z m863 -30 c38 -44 74 -80 79 -80 6 0
41 35 79 79 38 44 73 80 77 80 5 0 9 -76 9 -170 l0 -170 -30 0 -30 0 0 90 c0
50 -4 90 -9 90 -5 0 -25 -20 -45 -45 -21 -25 -43 -45 -50 -45 -6 0 -30 21 -51
47 l-40 48 -5 -90 -5 -90 -30 0 -30 0 -3 168 c-1 92 1 167 6 167 5 0 40 -36
78 -79z m1514 -87 c44 -91 80 -168 80 -170 0 -2 -15 -4 -33 -4 -33 0 -35 3
-83 105 -27 57 -52 104 -55 105 -3 0 -27 -46 -55 -102 -46 -97 -51 -103 -81
-106 -18 -2 -33 1 -33 7 0 19 160 331 170 331 6 0 46 -75 90 -166z m-932 129
c-3 -27 -5 -28 -76 -31 l-73 -3 3 -32 c3 -32 3 -32 66 -35 61 -3 62 -3 62 -32
l0 -30 -66 0 -65 0 3 -37 3 -38 73 -3 72 -3 0 -29 0 -30 -105 0 -105 0 0 165
0 165 106 0 105 0 -3 -27z m332 8 c52 -28 73 -62 77 -128 3 -47 -1 -66 -19
-97 -35 -59 -85 -81 -188 -81 l-85 0 -3 163 -2 162 92 0 c72 0 101 -4 128 -19z
m250 -146 l0 -165 -30 0 -30 0 0 165 0 165 30 0 30 0 0 -165z m-1030 -313 c40
-22 44 -31 25 -56 -14 -19 -16 -19 -54 -1 -43 19 -88 14 -98 -10 -8 -24 14
-42 73 -61 32 -10 63 -28 74 -42 22 -27 26 -72 10 -103 -26 -48 -134 -65 -199
-31 -41 20 -46 31 -28 56 13 17 15 17 45 2 52 -27 122 -19 122 14 0 23 -15 34
-77 54 -96 32 -121 100 -59 162 29 29 41 34 83 34 28 0 63 -8 83 -18z m386 -3
c59 -28 87 -76 87 -148 0 -104 -53 -162 -154 -169 -119 -9 -195 63 -187 177 5
70 34 116 92 142 54 24 110 24 162 -2z m434 1 c48 -24 53 -32 36 -55 -12 -17
-15 -17 -55 -2 -23 10 -51 17 -62 17 -36 0 -80 -30 -95 -66 -44 -105 68 -195
168 -136 28 16 30 16 44 -2 21 -30 18 -35 -32 -58 -58 -25 -147 -22 -186 7
-82 61 -94 203 -22 266 59 51 138 63 204 29z m210 -150 l0 -170 -30 0 -30 0 0
170 0 170 30 0 30 0 0 -170z m344 21 c97 -196 96 -193 54 -189 -31 3 -36 8
-83 105 -27 56 -53 103 -56 103 -3 0 -28 -46 -55 -102 -46 -97 -51 -103 -81
-106 -18 -2 -33 -1 -33 2 0 17 161 336 170 336 6 0 44 -67 84 -149z m236 9 l5
-135 73 -3 72 -3 0 -29 0 -30 -105 0 -105 0 0 171 0 170 28 -3 27 -3 5 -135z
m-1910 -160 c0 -25 -15 -40 -40 -40 -42 0 -52 53 -12 63 20 4 52 -10 52 -23z"/>
<path d="M2150 3448 c-36 -19 -64 -80 -56 -123 15 -77 113 -111 174 -60 50 42
49 132 -1 173 -23 20 -88 25 -117 10z"/>
<path d="M3350 2864 l0 -107 53 7 c68 9 107 47 107 107 0 31 -7 47 -29 70 -25
24 -37 29 -80 29 l-51 0 0 -106z"/>
<path d="M2971 2497 c-33 -20 -50 -55 -51 -105 0 -62 40 -102 103 -102 39 0
49 5 77 37 29 32 32 41 27 81 -3 29 -13 53 -29 69 -30 30 -93 39 -127 20z"/>
</g>
</svg>
