<?xml version="1.0" encoding="UTF-8"?>
<svg id="Group_7" data-name="Group 7" xmlns="http://www.w3.org/2000/svg" xmlns:xlink="http://www.w3.org/1999/xlink" viewBox="0 0 378.29 132.38">
  <defs>
    <style>
      .cls-1 {
        fill: none;
      }

      .cls-2 {
        fill: #283582;
      }

      .cls-3 {
        fill: #e20714;
      }

      .cls-4 {
        fill: #009ee2;
      }

      .cls-5 {
        clip-path: url(#clippath);
      }
    </style>
    <clipPath id="clippath">
      <rect class="cls-1" x="68.02" y="23.8" width="242.25" height="84.77"/>
    </clipPath>
  </defs>
  <path id="Fill_1" data-name="Fill 1" class="cls-4" d="M257.46,108.57c-1.08.03-2.15-.17-3.14-.57-.82-.35-1.55-.88-2.14-1.56-.57-.69-.99-1.49-1.23-2.35-.27-.96-.4-1.95-.39-2.95v-1.23h4.05v1.2c-.06,1.06.17,2.12.66,3.06.58.79,1.54,1.2,2.51,1.08.55.02,1.09-.08,1.6-.29.41-.19.75-.48,1-.86.27-.43.44-.91.5-1.41.09-.63.13-1.27.13-1.91v-15.91h4.05v15.68c0,.99-.08,1.98-.26,2.95-.16.92-.52,1.79-1.05,2.56-.59.8-1.38,1.43-2.3,1.81-1.27.5-2.63.73-3.99.68ZM230.86,108.57c-1.26,0-2.51-.16-3.73-.49-1.1-.29-2.14-.8-3.05-1.49-.88-.69-1.59-1.57-2.07-2.58-.54-1.16-.82-2.43-.81-3.71h4.05c-.02.78.13,1.56.45,2.27.29.61.72,1.14,1.26,1.54.56.41,1.19.71,1.86.88.75.19,1.51.28,2.28.27.77.02,1.53-.09,2.27-.31.55-.17,1.07-.44,1.52-.79.37-.3.66-.68.84-1.12.17-.41.26-.84.26-1.28.06-.71-.16-1.41-.6-1.96-.36-.4-.81-.7-1.31-.89-.94-.34-1.9-.62-2.87-.86-1.08-.27-2.44-.62-4.03-1.05-.87-.21-1.71-.55-2.48-1.02-.6-.37-1.14-.85-1.57-1.41-.38-.49-.66-1.05-.83-1.65-.16-.58-.24-1.18-.24-1.78-.03-1.06.23-2.1.73-3.03.48-.84,1.14-1.57,1.93-2.12.83-.57,1.75-.99,2.72-1.24,1-.27,2.04-.4,3.08-.41,1.16,0,2.31.15,3.42.47,1.02.29,1.98.77,2.82,1.41.8.62,1.46,1.42,1.93,2.32.49.99.74,2.09.71,3.19h-4.05c.02-1.23-.55-2.4-1.52-3.16-1.04-.65-2.24-.98-3.47-.93-.49,0-.98.05-1.46.15-.48.09-.94.25-1.36.49-.41.22-.76.54-1.02.92-.28.43-.42.94-.4,1.46-.04.72.23,1.43.75,1.93.58.5,1.26.86,2,1.05.09.02.43.11,1.02.27s1.26.34,1.99.53,1.45.38,2.15.57,1.21.32,1.51.4c.71.21,1.37.54,1.98.97.54.39,1.02.87,1.41,1.41.37.52.66,1.09.84,1.7.18.59.27,1.2.28,1.81.03,1.16-.24,2.3-.79,3.32-.51.9-1.23,1.67-2.09,2.25-.9.6-1.9,1.03-2.95,1.28-1.1.27-2.24.41-3.37.41h0ZM185.63,108.57c-1.6.02-3.19-.3-4.65-.96-1.33-.61-2.52-1.5-3.48-2.61-.97-1.13-1.71-2.44-2.19-3.86-.51-1.51-.77-3.1-.76-4.7,0-1.59.25-3.16.76-4.67.48-1.41,1.22-2.72,2.19-3.85.96-1.11,2.15-2.01,3.48-2.63,1.46-.67,3.05-1,4.65-.97,1.6-.02,3.19.31,4.65.97,1.33.62,2.52,1.52,3.48,2.63.97,1.13,1.71,2.44,2.19,3.86.51,1.5.77,3.08.76,4.67,0,1.6-.25,3.19-.76,4.7-.48,1.41-1.22,2.72-2.19,3.86-.96,1.11-2.15,2-3.48,2.61-1.46.65-3.05.98-4.65.95ZM185.63,87.64c-1.11-.03-2.21.23-3.19.74-.88.48-1.63,1.16-2.19,1.99-.58.87-1,1.82-1.25,2.84-.54,2.13-.54,4.35,0,6.48.25,1.01.67,1.97,1.25,2.84.56.83,1.31,1.51,2.19,1.99.98.52,2.08.77,3.19.75,1.11.03,2.21-.23,3.19-.75.88-.48,1.63-1.16,2.19-1.99.58-.87,1-1.83,1.25-2.84.54-2.13.54-4.35,0-6.48-.25-1.01-.67-1.97-1.25-2.84-.56-.83-1.31-1.51-2.19-1.99-.98-.52-2.08-.78-3.19-.75h0ZM204.45,108.02h-4.05v-23.13h4.05v10.53l10.3-10.53h4.99l-9.23,9.23,9.88,13.9h-5.05l-7.58-11.05-3.31,3.27v7.78h0ZM157.63,108.02h-4.05v-23.13h4.05v10.53l10.3-10.53h4.99l-9.23,9.23,9.88,13.9h-5.05l-7.58-11.05-3.3,3.27v7.78h0ZM310.27,108.02h-16.88v-23.13h16.65v3.5h-12.6v6.06h11.66v3.3h-11.67v6.77h12.83v3.5h0ZM279.59,108.02h-9.59v-23.13h9.59c1.58-.04,3.15.27,4.6.91,1.24.56,2.33,1.41,3.18,2.48.84,1.1,1.46,2.34,1.83,3.68.41,1.47.61,2.98.6,4.5,0,1.52-.19,3.03-.6,4.5-.37,1.33-.99,2.58-1.83,3.68-.85,1.07-1.93,1.92-3.18,2.48-1.45.64-3.02.95-4.6.91h0ZM274.05,88.2v16.52h3.99c1.32.04,2.63-.17,3.87-.63.93-.37,1.74-.97,2.37-1.75.58-.77.98-1.67,1.17-2.62.21-1.07.31-2.16.31-3.26,0-1.09-.1-2.18-.31-3.26-.18-.95-.58-1.85-1.17-2.62-.62-.78-1.44-1.38-2.37-1.75-1.24-.46-2.55-.68-3.87-.63h-3.99ZM247.64,108.02h-4.05v-23.13h4.05v23.13h0Z"/>
  <path id="Clip_4-2" data-name="Clip 4-2" class="cls-1" d="M68.02,108.57h242.25V23.8H68.02v84.77Z"/>
  <g class="cls-5">
    <g id="Group_7-2" data-name="Group 7-2">
      <path id="Fill_3" data-name="Fill 3" class="cls-3" d="M139.14,108.48c-1.65.03-3.28-.3-4.78-.99-1.32-.62-2.49-1.52-3.42-2.64-.92-1.13-1.61-2.43-2.04-3.82-.46-1.48-.69-3.02-.68-4.57,0-1.55.22-3.09.68-4.57.43-1.4,1.12-2.7,2.04-3.84.93-1.13,2.1-2.04,3.42-2.66,3.04-1.32,6.5-1.32,9.54,0,1.31.63,2.48,1.53,3.4,2.66.92,1.14,1.61,2.44,2.04,3.84.46,1.48.69,3.02.68,4.57,0,1.55-.22,3.09-.68,4.57-.43,1.39-1.12,2.69-2.04,3.82-.93,1.12-2.09,2.02-3.4,2.64-1.49.68-3.12,1.02-4.76.99ZM139.14,86.28c-1.37-.04-2.73.26-3.95.88-1.07.56-1.99,1.35-2.71,2.32-.71.98-1.24,2.09-1.56,3.26-.67,2.43-.67,5,0,7.44.31,1.18.84,2.29,1.56,3.27.71.97,1.64,1.76,2.71,2.32,1.23.61,2.58.91,3.95.88,1.36.04,2.72-.26,3.94-.88,1.06-.56,1.98-1.35,2.69-2.32.71-.99,1.24-2.1,1.56-3.27.67-2.43.67-5,0-7.44-.32-1.17-.84-2.27-1.56-3.26-.71-.97-1.63-1.76-2.69-2.32-1.22-.61-2.57-.91-3.94-.88ZM104.6,108.03h-2.2v-23.14h3.24l8,20.28,7.97-20.28h3.24v23.13h-2.21v-19.99h-.06l-7.9,19.99h-2.07l-7.94-19.99h-.06v19.99h0ZM77.61,108.03h-2.2v-23.14h3.24l8,20.28,7.97-20.28h3.24v23.13h-2.2v-19.99h-.07l-7.9,19.99h-2.07l-7.94-19.99h-.06v19.99h0ZM70.64,108.03h-2.2v-23.14h2.2v23.13h0Z"/>
      <path id="Fill_5" data-name="Fill 5" class="cls-2" d="M94.95,69.65c.6-.05,1.18-.11,1.76-.18l.05-40.81h25.04l-.04,36.62c.54-.02,1.09-.03,1.66-.03,1.03,0,2.1.04,3.2.12l.04-41.58h-34.75l-.05,45.97c1.05,0,2.09-.04,3.11-.13"/>
      <path id="Fill_6" data-name="Fill 6" class="cls-4" d="M68.02,67.97s14.9,5.84,26.93,4.77c12.32-1.1,17.38-4.39,28.46-4.39s27.12,5.04,27.12,5.04c0,0-21.49-2.77-33.61.11-12.03,2.86-16.62,4.81-25.98,4.44-9.74-.38-22.92-9.98-22.92-9.98"/>
    </g>
  </g>
</svg>